<?xml version="1.0" encoding="UTF-8" standalone="no"?>
<svg
   xmlns:dc="http://purl.org/dc/elements/1.1/"
   xmlns:cc="http://creativecommons.org/ns#"
   xmlns:rdf="http://www.w3.org/1999/02/22-rdf-syntax-ns#"
   xmlns:svg="http://www.w3.org/2000/svg"
   xmlns="http://www.w3.org/2000/svg"
   xmlns:sodipodi="http://sodipodi.sourceforge.net/DTD/sodipodi-0.dtd"
   xmlns:inkscape="http://www.inkscape.org/namespaces/inkscape"
   width="79pt"
   height="76pt"
   viewBox="0 0 79 76"
   version="1.1"
   id="svg2"
   inkscape:version="0.48.4 r9939"
   sodipodi:docname="logo.svg">
  <metadata
     id="metadata18">
    <rdf:RDF>
      <cc:Work
         rdf:about="">
        <dc:format>image/svg+xml</dc:format>
        <dc:type
           rdf:resource="http://purl.org/dc/dcmitype/StillImage" />
      </cc:Work>
    </rdf:RDF>
  </metadata>
  <defs
     id="defs16" />
  <sodipodi:namedview
     pagecolor="#ffffff"
     bordercolor="#666666"
     borderopacity="1"
     objecttolerance="10"
     gridtolerance="10"
     guidetolerance="10"
     inkscape:pageopacity="0"
     inkscape:pageshadow="2"
     inkscape:window-width="1920"
     inkscape:window-height="1176"
     id="namedview14"
     showgrid="false"
     inkscape:zoom="7.0264084"
     inkscape:cx="93.739248"
     inkscape:cy="45.856612"
     inkscape:window-x="0"
     inkscape:window-y="24"
     inkscape:window-maximized="1"
     inkscape:current-layer="svg2" />
  <path
     fill="#d14f39"
     d=" M 46.43 10.39 C 48.73 5.95 55.75 5.20 58.85 9.19 C 60.71 11.30 60.45 14.24 60.42 16.85 C 62.87 17.54 65.15 18.67 67.33 19.97 C 65.13 20.87 62.82 21.51 60.80 22.80 C 64.04 25.21 70.23 25.84 70.11 30.98 C 70.42 35.35 63.65 37.20 61.62 33.43 C 59.70 29.51 58.41 25.26 55.95 21.60 C 52.70 24.73 49.16 29.35 44.02 28.13 C 39.51 27.59 36.79 21.52 40.06 18.09 C 41.66 15.98 44.41 16.25 46.70 16.70 C 46.27 14.64 45.35 12.41 46.43 10.39 Z"
     id="path6" />
  <path
     fill="#a59369"
     d=" M 36.21 34.56 C 43.78 33.22 50.52 29.01 55.83 23.56 C 61.19 32.59 61.70 44.40 56.82 53.73 C 53.73 59.74 47.65 64.00 40.99 65.02 C 32.10 66.80 22.85 62.58 17.12 55.80 C 10.77 48.51 9.20 38.41 10.04 29.05 C 17.55 34.37 27.19 36.42 36.21 34.56 Z"
     id="path8" />
  <path
     fill="#f4f3ec"
     d=" M 28.40 40.58 C 33.85 38.69 40.73 38.76 45.17 42.90 C 50.01 47.44 48.60 56.75 42.43 59.42 C 34.12 62.95 22.73 57.99 20.51 49.02 C 20.57 44.77 24.86 42.07 28.40 40.58 Z"
     id="path10" />
  <path
     fill="#daae1e"
     d=" M 34.38 43.45 C 39.32 41.00 45.63 45.47 44.94 50.94 C 44.74 56.69 37.14 60.04 32.79 56.25 C 28.34 53.08 29.32 45.45 34.38 43.45 Z"
     id="path12" />
</svg>
